<svg width="21" height="24" viewBox="0 0 21 24" fill="none" xmlns="http://www.w3.org/2000/svg">
<path d="M21 14.355C21 13.613 20.436 13.009 19.74 13.009H9.676C8.98 13.009 8.416 13.613 8.416 14.355C8.416 15.097 8.979 15.701 9.676 15.701H19.74C20.436 15.702 21 15.098 21 14.355Z" fill="#B3B1B0"/>
<path d="M2.482 18.187L6.795 22.548C7.768 23.527 9.113 24 10.598 24C12.083 24 13.428 23.488 14.403 22.506L16.991 19.869C17.501 19.355 17.483 18.504 16.952 17.969C16.421 17.434 15.577 17.416 15.068 17.93L12.392 20.537C11.93 21.004 11.29 21.199 10.583 21.199C9.876 21.199 9.237 21.004 8.773 20.537L4.475 16.174C4.012 15.707 3.779 15.024 3.779 14.311C3.779 13.598 4.012 12.954 4.475 12.487L8.76 8.107C9.223 7.64 9.876 7.462 10.582 7.462C11.288 7.462 11.928 7.657 12.391 8.124L15.067 10.73C15.577 11.245 16.421 11.227 16.952 10.692C17.483 10.156 17.501 9.305 16.991 8.791L14.403 6.155C13.754 5.509 12.932 5.039 12.011 4.825L11.977 4.818L14.424 2.315C14.936 1.801 14.918 0.949003 14.387 0.414003C13.856 -0.120997 13.011 -0.137997 12.5 0.376003L2.482 10.476C1.509 11.458 1 12.813 1 14.311C1 15.809 1.509 17.207 2.482 18.187Z" fill="#E7A41F"/>
<path d="M7.115 22.814C6.939 22.717 6.783 22.595 6.641 22.453C5.314 21.12 3.981 19.793 2.657 18.456C0.667996 16.448 0.354996 13.519 1.871 11.136C2.106 10.767 2.4 10.442 2.71 10.132C5.918 6.918 9.125 3.703 12.333 0.488996C12.958 -0.137004 13.831 -0.163004 14.412 0.421996C14.972 0.984996 14.939 1.877 14.334 2.488C13.565 3.264 12.795 4.038 12.025 4.813C11.984 4.935 11.885 5.013 11.8 5.1C10.937 5.976 10.05 6.829 9.199 7.718C9.088 7.834 8.937 7.904 8.827 8.023C7.404 9.446 5.964 10.853 4.561 12.295C3.426 13.462 3.464 15.233 4.629 16.422C5.937 17.758 7.268 19.072 8.59 20.396C8.657 20.463 8.726 20.528 8.794 20.594C9.262 20.897 9.268 21.844 8.977 22.265C8.656 22.73 8.237 23.015 7.644 22.993C7.445 22.987 7.281 22.907 7.115 22.814Z" fill="#070706"/>
</svg>
