<svg xmlns="http://www.w3.org/2000/svg" version="1.1" xmlns:xlink="http://www.w3.org/1999/xlink" xmlns:svgjs="http://svgjs.com/svgjs" width="1440" height="560" preserveAspectRatio="none" viewBox="0 0 1440 560">
    <g mask="url(&quot;#SvgjsMask1010&quot;)" fill="none">
        <path d="M630.72 654.9C739.09 636.61 688.71 381.79 965.87 370.43 1243.02 359.07 1462.34 187.31 1636.16 185.63" stroke="rgba(238, 109, 133, 0.13)" stroke-width="2"></path>
        <path d="M480.56 569.18C616.9 509.32 555.98 82.66 820.42 80.08 1084.87 77.5 1322.51 285 1500.15 287.28" stroke="rgba(238, 109, 133, 0.13)" stroke-width="2"></path>
        <path d="M119.64 622.33C275.88 591.28 337.44 197.23 588.67 191.06 839.9 184.89 823.18 261.06 1057.7 261.06 1292.21 261.06 1408.17 191.25 1526.73 191.06" stroke="rgba(238, 109, 133, 0.13)" stroke-width="2"></path>
        <path d="M204.42 644.21C365.75 609.76 424.6 196.04 681.99 188.87 939.38 181.7 920.77 258.87 1159.56 258.87 1398.34 258.87 1516.46 189.06 1637.13 188.87" stroke="rgba(238, 109, 133, 0.13)" stroke-width="2"></path>
        <path d="M658.55 635.4C808.44 594.34 863.69 178.92 1079.29 177.77 1294.88 176.62 1375.7 435.42 1500.02 446.57" stroke="rgba(238, 109, 133, 0.13)" stroke-width="2"></path>
    </g>
    <defs>
        <mask id="SvgjsMask1010">
            <rect width="1440" height="560" fill="#ffffff"></rect>
        </mask>
    </defs>
</svg>