<svg xmlns="http://www.w3.org/2000/svg" version="1.1" xmlns:xlink="http://www.w3.org/1999/xlink" xmlns:svgjs="http://svgjs.com/svgjs" width="1440" height="560" preserveAspectRatio="none" viewBox="0 0 1440 560">
    <g mask="url(&quot;#SvgjsMask1035&quot;)" fill="none">
        <path d="M242.18 110.39 a109.92 109.92 0 1 0 219.84 0 a109.92 109.92 0 1 0 -219.84 0z" fill="rgba(179, 193, 237, 0.44)" class="triangle-float1"></path>
        <path d="M244.25 317.57 a180.37 180.37 0 1 0 360.74 0 a180.37 180.37 0 1 0 -360.74 0z" fill="rgba(179, 193, 237, 0.44)" class="triangle-float3"></path>
        <path d="M657.88 306.33 a140.87 140.87 0 1 0 281.74 0 a140.87 140.87 0 1 0 -281.74 0z" fill="rgba(179, 193, 237, 0.44)" class="triangle-float3"></path>
        <path d="M1510.81,547.3C1560.091,547.939,1610.166,533.307,1637.25,492.131C1667.048,446.83,1673.191,387.986,1646.735,340.655C1619.697,292.283,1566.221,266.684,1510.81,265.93C1453.95,265.157,1395.427,286.876,1368.327,336.868C1342.178,385.105,1359.163,443.49,1389.926,488.924C1416.816,528.637,1462.854,546.678,1510.81,547.3" fill="rgba(179, 193, 237, 0.44)" class="triangle-float2"></path>
        <path d="M321.868,557.6C372.463,555.65,424.476,540.127,449.578,496.155C474.509,452.483,461.214,400.024,436.975,355.964C411.605,309.849,374.463,266.027,321.868,264.017C266.465,261.9,219.023,299.034,190.445,346.544C160.831,395.778,145.522,457.93,175.892,506.701C205.087,553.586,266.677,559.727,321.868,557.6" fill="rgba(179, 193, 237, 0.44)" class="triangle-float2"></path>
        <path d="M74.578,152.348C105.229,152.049,137.179,145.63,154.061,120.046C172.576,91.988,176.979,53.731,157.93,26.033C140.5,0.69,105.33,3.889,74.578,4.476C45.352,5.033,13.349,5.183,-3.443,29.11C-22.45,56.192,-25.336,93.668,-7.638,121.623C9.135,148.117,43.222,152.654,74.578,152.348" fill="rgba(179, 193, 237, 0.44)" class="triangle-float2"></path>
        <path d="M1061.39 381.42 a134.92 134.92 0 1 0 269.84 0 a134.92 134.92 0 1 0 -269.84 0z" fill="rgba(179, 193, 237, 0.44)" class="triangle-float1"></path>
        <path d="M322.299,570.037C357.743,570.996,393.287,557.609,411.945,527.458C431.536,495.8,429.971,456.462,413.128,423.261C394.342,386.23,363.812,349.84,322.299,350.746C281.702,351.632,255.491,390.393,238.089,427.082C223.425,457.998,223.314,493.341,240.681,522.823C257.779,551.848,288.624,569.126,322.299,570.037" fill="rgba(179, 193, 237, 0.44)" class="triangle-float2"></path>
    </g>
    <defs>
        <mask id="SvgjsMask1035">
            <rect width="1440" height="560" fill="#ffffff"></rect>
        </mask>
        <style>
            @keyframes float1 {
                0%{transform: translate(0, 0)}
                50%{transform: translate(-10px, 0)}
                100%{transform: translate(0, 0)}
            }

            .triangle-float1 {
                animation: float1 5s infinite;
            }

            @keyframes float2 {
                0%{transform: translate(0, 0)}
                50%{transform: translate(-5px, -5px)}
                100%{transform: translate(0, 0)}
            }

            .triangle-float2 {
                animation: float2 4s infinite;
            }

            @keyframes float3 {
                0%{transform: translate(0, 0)}
                50%{transform: translate(0, -10px)}
                100%{transform: translate(0, 0)}
            }

            .triangle-float3 {
                animation: float3 6s infinite;
            }
        </style>
    </defs>
</svg>