<svg width="810" height="700" viewBox="0 0 810 700" fill="none" xmlns="http://www.w3.org/2000/svg">
<g filter="url(#filter0_bi)">
<circle cx="405.18" cy="350" r="350" fill="url(#paint0_radial)"/>
</g>
<path d="M405.18 514.5C397.68 514.5 298.18 381 254.68 465.5M405.18 514.5C340.513 526.333 219.88 533.1 254.68 465.5M405.18 514.5C374.18 541 293.991 591.468 210.241 571.5C118.61 549.652 106.156 488.568 145.241 448C173.333 418.842 234.412 456.679 254.68 465.5M405.18 514.5C369.959 478.519 335.609 399.44 398.18 354.619M254.68 465.5C197.013 442.666 87.1799 383.1 109.18 327.5C120.338 299.3 142.444 280.156 166.68 270.166M405.18 350C402.723 351.494 400.391 353.035 398.18 354.619M370.18 480.827C360.842 457.382 350.379 435.205 339.524 414.5M398.18 354.619C395.18 350 383.18 261.5 344.68 278M344.68 278C313.88 291.2 328.409 374.5 339.524 414.5M344.68 278C337.872 250.697 303.773 129.481 222.18 165C156.134 193.75 179.418 262.189 166.68 270.166M339.524 414.5C311.023 360.137 279.819 315.915 259.18 285.5C242.244 260.541 202.177 255.534 166.68 270.166" stroke="black"/>
<path d="M405.18 514.5C374.18 541 293.991 591.468 210.241 571.5C146.122 556.212 120.772 521.712 124.722 488.473C84.7078 485.924 -7.8201 412 1.6799 363C11.1799 314 102.708 290.722 124.722 301C136.228 286.913 151.008 276.626 166.68 270.166C179.418 262.189 156.134 193.75 222.18 165C222.18 160.5 208.18 11.5 297.68 36.5001C387.18 61.5001 401.847 219.667 405.18 350C402.723 351.495 400.391 353.036 398.18 354.619C395.884 356.264 393.719 357.954 391.68 359.687C402.347 368.625 406.48 384.1 391.68 378.5C373.18 371.5 413.18 404 398.18 400.5C383.18 397 410.68 427.5 391.68 431C372.68 434.5 398.18 448 382.68 456C370.28 462.4 392.513 497.667 405.18 514.5Z" fill="url(#paint1_linear)"/>
<path d="M405.18 514.5C397.68 514.5 298.18 381 254.68 465.5M405.18 514.5C340.513 526.333 219.88 533.1 254.68 465.5M405.18 514.5C374.18 541 293.991 591.468 210.241 571.5C146.122 556.212 120.772 521.712 124.722 488.473M405.18 514.5C392.513 497.667 370.28 462.4 382.68 456C398.18 448 372.68 434.5 391.68 431C410.68 427.5 383.18 397 398.18 400.5C413.18 404 373.18 371.5 391.68 378.5C406.48 384.1 402.347 368.625 391.68 359.687M405.18 514.5C371.252 479.839 338.13 405.185 391.68 359.687M254.68 465.5C234.412 456.679 173.332 418.842 145.241 448C133.506 460.18 126.417 474.211 124.722 488.473M254.68 465.5C231.793 456.438 200.69 441.59 172.872 423.5C130.598 396.01 95.911 361.034 109.18 327.5C113.123 317.535 118.433 308.7 124.722 301M370.18 480.828C360.842 457.382 350.379 435.206 339.524 414.5M398.18 354.619C400.391 353.036 402.723 351.495 405.18 350C401.847 219.667 387.18 61.5001 297.68 36.5001C208.18 11.5 222.18 160.5 222.18 165M398.18 354.619C395.18 350 383.18 261.5 344.68 278M398.18 354.619C395.884 356.264 393.719 357.954 391.68 359.687M344.68 278C313.88 291.2 328.409 374.5 339.524 414.5M344.68 278C337.872 250.698 303.773 129.482 222.18 165M339.524 414.5C311.023 360.138 279.819 315.915 259.18 285.5C242.244 260.541 202.176 255.535 166.68 270.166M166.68 270.166C179.418 262.189 156.134 193.75 222.18 165M166.68 270.166C151.008 276.626 136.228 286.913 124.722 301M124.722 301C102.708 290.722 11.1799 314 1.6799 363C-7.8201 412 84.7078 485.924 124.722 488.473" stroke="black"/>
<path d="M405.18 514.825C412.68 514.825 512.18 381.325 555.68 465.825M405.18 514.825C469.847 526.658 590.48 533.425 555.68 465.825M405.18 514.825C436.18 541.325 516.369 591.794 600.119 571.825C691.75 549.977 704.204 488.894 665.119 448.325C637.027 419.167 575.948 457.004 555.68 465.825M405.18 514.825C440.4 478.844 474.751 399.766 412.18 354.945M555.68 465.825C613.346 442.992 723.18 383.425 701.18 327.825C690.022 299.626 667.916 280.481 643.68 270.491M405.18 350.325C407.637 351.82 409.969 353.361 412.18 354.945M440.18 481.153C449.518 457.708 459.981 435.531 470.836 414.825M412.18 354.945C415.18 350.325 427.18 261.825 465.68 278.325M465.68 278.325C496.48 291.525 481.951 374.825 470.836 414.825M465.68 278.325C472.487 251.023 506.587 129.807 588.18 165.325C654.226 194.075 630.942 262.514 643.68 270.491M470.836 414.825C499.337 360.463 530.541 316.24 551.18 285.825C568.116 260.866 608.183 255.86 643.68 270.491" stroke="black"/>
<path d="M405.18 514.825C436.18 541.325 516.369 591.794 600.119 571.825C664.238 556.537 689.588 522.037 685.638 488.798C725.652 486.25 818.18 412.326 808.68 363.326C799.18 314.326 707.652 291.048 685.638 301.326C674.132 287.238 659.351 276.951 643.68 270.492C630.942 262.515 654.226 194.076 588.18 165.326C588.18 160.826 602.18 11.8255 512.68 36.8255C423.18 61.8255 408.513 219.992 405.18 350.325C407.637 351.82 409.969 353.361 412.18 354.945C414.475 356.589 416.641 358.28 418.68 360.012C408.013 368.95 403.88 384.426 418.68 378.826C437.18 371.826 397.18 404.326 412.18 400.826C427.18 397.326 399.68 427.826 418.68 431.326C437.68 434.826 412.18 448.325 427.68 456.326C440.08 462.726 417.847 497.992 405.18 514.825Z" fill="url(#paint2_linear)"/>
<path d="M405.18 514.825C412.68 514.825 512.18 381.325 555.68 465.825M405.18 514.825C469.847 526.658 590.48 533.425 555.68 465.825M405.18 514.825C436.18 541.325 516.369 591.794 600.119 571.825C664.238 556.537 689.588 522.037 685.638 488.798M405.18 514.825C417.847 497.992 440.08 462.726 427.68 456.326C412.18 448.325 437.68 434.826 418.68 431.326C399.68 427.826 427.18 397.326 412.18 400.826C397.18 404.326 437.18 371.826 418.68 378.826C403.88 384.426 408.013 368.95 418.68 360.012M405.18 514.825C439.108 480.164 472.23 405.51 418.68 360.012M555.68 465.825C575.948 457.004 637.028 419.168 665.119 448.325C676.854 460.506 683.943 474.536 685.638 488.798M555.68 465.825C578.567 456.763 609.67 441.915 637.488 423.826C679.762 396.335 714.449 361.359 701.18 327.826C697.237 317.86 691.927 309.025 685.638 301.326M440.18 481.153C449.518 457.708 459.981 435.531 470.836 414.826M412.18 354.945C409.969 353.361 407.637 351.82 405.18 350.325C408.513 219.992 423.18 61.8255 512.68 36.8255C602.18 11.8255 588.18 160.826 588.18 165.326M412.18 354.945C415.18 350.325 427.18 261.825 465.68 278.325M412.18 354.945C414.475 356.589 416.641 358.28 418.68 360.012M465.68 278.325C496.48 291.525 481.951 374.826 470.836 414.826M465.68 278.325C472.488 251.023 506.587 129.807 588.18 165.326M470.836 414.826C499.337 360.463 530.541 316.241 551.18 285.825C568.116 260.867 608.183 255.86 643.68 270.492M643.68 270.492C630.942 262.515 654.226 194.076 588.18 165.326M643.68 270.492C659.351 276.951 674.132 287.238 685.638 301.326M685.638 301.326C707.652 291.048 799.18 314.326 808.68 363.326C818.18 412.326 725.652 486.25 685.638 488.798" stroke="black"/>
<defs>
<filter id="filter0_bi" x="51.1799" y="-4" width="708" height="708" filterUnits="userSpaceOnUse" color-interpolation-filters="sRGB">
<feFlood flood-opacity="0" result="BackgroundImageFix"/>
<feGaussianBlur in="BackgroundImage" stdDeviation="2"/>
<feComposite in2="SourceAlpha" operator="in" result="effect1_backgroundBlur"/>
<feBlend mode="normal" in="SourceGraphic" in2="effect1_backgroundBlur" result="shape"/>
<feColorMatrix in="SourceAlpha" type="matrix" values="0 0 0 0 0 0 0 0 0 0 0 0 0 0 0 0 0 0 127 0" result="hardAlpha"/>
<feMorphology radius="4" operator="dilate" in="SourceAlpha" result="effect2_innerShadow"/>
<feOffset dx="3" dy="-3"/>
<feGaussianBlur stdDeviation="2"/>
<feComposite in2="hardAlpha" operator="arithmetic" k2="-1" k3="1"/>
<feColorMatrix type="matrix" values="0 0 0 0 0 0 0 0 0 0 0 0 0 0 0 0 0 0 0.25 0"/>
<feBlend mode="normal" in2="shape" result="effect2_innerShadow"/>
</filter>
<radialGradient id="paint0_radial" cx="0" cy="0" r="1" gradientUnits="userSpaceOnUse" gradientTransform="translate(405.18 465.5) rotate(-24.2939) scale(157.99)">
<stop stop-color="#485CA4" stop-opacity="0"/>
<stop offset="1" stop-color="#C0C6FD" stop-opacity="0.39"/>
</radialGradient>
<linearGradient id="paint1_linear" x1="67.1799" y1="414" x2="405.18" y2="714" gradientUnits="userSpaceOnUse">
<stop stop-color="#3784F8"/>
<stop offset="1" stop-color="#00A3FF" stop-opacity="0.16"/>
</linearGradient>
<linearGradient id="paint2_linear" x1="743.18" y1="414.325" x2="405.18" y2="718" gradientUnits="userSpaceOnUse">
<stop stop-color="#3784F8"/>
<stop offset="1" stop-color="#00A3FF" stop-opacity="0.16"/>
</linearGradient>
</defs>
</svg>
