<svg width="401" height="245" viewBox="0 0 401 245" fill="none" xmlns="http://www.w3.org/2000/svg">
<g filter="url(#filter0_b_105_18)">
<path d="M330.26 244.93C325.76 244.93 321.08 243.67 316.22 241.15C311.54 238.81 306.95 236.02 302.45 232.78C298.13 229.54 294.35 226.57 291.11 223.87C274.55 210.01 258.8 195.16 243.86 179.32C228.92 163.48 213.53 148.18 197.69 133.42C191.75 139.72 185.9 146.11 180.14 152.59C174.56 159.07 168.98 165.64 163.4 172.3C160.88 175.18 158.36 178.24 155.84 181.48C153.5 184.54 151.07 187.6 148.55 190.66C148.01 191.2 147.38 191.47 146.66 191.47C146.12 191.47 145.49 191.29 144.77 190.93C144.05 190.39 143.69 189.76 143.69 189.04C143.69 188.5 145.13 186.34 148.01 182.56C151.07 178.78 154.85 174.19 159.35 168.79C164.03 163.39 168.71 157.9 173.39 152.32C178.25 146.74 182.48 141.88 186.08 137.74C189.86 133.6 192.29 130.9 193.37 129.64L189.59 126.13C181.31 136.75 172.13 147.28 162.05 157.72C151.97 168.16 141.08 177.7 129.38 186.34C117.68 194.8 105.26 201.55 92.12 206.59C78.98 211.81 65.21 214.42 50.81 214.42C45.41 214.42 39.74 213.88 33.8 212.8C28.04 211.72 22.64 209.83 17.6 207.13C12.56 204.61 8.42 201.19 5.18 196.87C2.12 192.37 0.59 186.88 0.59 180.4C0.59 175.72 1.49 170.77 3.29 165.55C5.09 160.33 7.7 156.19 11.12 153.13C11.66 152.59 12.29 152.32 13.01 152.32C13.37 152.32 13.55 152.5 13.55 152.86C13.55 153.58 12.56 155.02 10.58 157.18C8.78 159.34 7.88 162.4 7.88 166.36V168.52C9.32 177.52 12.74 184.81 18.14 190.39C23.54 195.97 30.11 199.93 37.85 202.27C45.59 204.79 53.6 206.05 61.88 206.05C66.92 206.05 72.05 205.6 77.27 204.7C82.49 203.8 87.35 202.45 91.85 200.65C99.77 197.41 107.78 192.55 115.88 186.07C123.98 179.59 131.81 172.3 139.37 164.2C147.11 155.92 154.31 147.64 160.97 139.36C167.63 130.9 173.39 123.25 178.25 116.41L168.53 108.85C166.91 112.81 165.2 116.77 163.4 120.73C161.6 124.69 159.8 128.56 158 132.34C157.64 132.88 156.92 134.05 155.84 135.85C154.76 137.65 153.77 138.55 152.87 138.55C152.69 138.55 152.51 138.37 152.33 138.01C152.33 137.65 152.33 137.38 152.33 137.2C152.33 136.12 152.42 135.13 152.6 134.23C152.96 133.15 153.23 132.16 153.41 131.26C154.67 126.58 155.75 121.81 156.65 116.95C157.55 112.09 158.36 107.23 159.08 102.37C154.76 99.49 150.35 97.06 145.85 95.08C141.53 93.1 137.3 92.11 133.16 92.11C130.82 92.11 128.84 92.56 127.22 93.46C125.78 94.18 124.61 94.54 123.71 94.54C122.09 94.54 121.28 93.82 121.28 92.38C121.28 91.12 122.63 90.04 125.33 89.14C128.03 88.24 130.91 87.61 133.97 87.25C137.03 86.71 139.01 86.44 139.91 86.44C143.51 86.44 147.02 86.89 150.44 87.79C153.86 88.51 157.1 89.59 160.16 91.03C160.34 89.05 160.43 87.07 160.43 85.09C160.61 83.11 160.7 81.22 160.7 79.42C160.7 77.8 160.61 75.82 160.43 73.48C160.25 70.96 159.71 68.8 158.81 67C158.09 65.02 156.74 64.03 154.76 64.03C152.78 64.03 151.52 64.75 150.98 66.19C150.44 67.45 149.72 68.08 148.82 68.08C148.46 68.08 148.28 67.9 148.28 67.54C148.28 67 148.46 66.37 148.82 65.65C150.44 62.41 152.69 59.26 155.57 56.2C158.63 52.96 162.14 51.34 166.1 51.34C169.52 51.34 171.95 52.51 173.39 54.85C175.01 57.01 176 59.62 176.36 62.68C176.9 65.56 177.17 68.26 177.17 70.78C177.17 75.28 176.72 79.87 175.82 84.55C174.92 89.05 173.75 93.55 172.31 98.05C174.47 99.49 176.54 101.02 178.52 102.64C180.68 104.26 182.75 105.88 184.73 107.5C194.81 93.28 204.35 78.79 213.35 64.03C222.53 49.27 231.26 34.24 239.54 18.94C229.1 17.68 218.66 16.6 208.22 15.7C197.78 14.8 187.25 14.35 176.63 14.35C166.91 14.35 157.19 14.98 147.47 16.24C137.93 17.5 128.84 20.02 120.2 23.8C111.74 27.4 104.09 33.07 97.25 40.81C90.59 48.19 85.19 57.28 81.05 68.08C76.91 78.88 74.84 89.32 74.84 99.4C74.84 106.78 76.01 113.35 78.35 119.11C80.87 124.87 85.28 129.82 91.58 133.96C92.66 134.68 93.2 135.4 93.2 136.12C93.2 137.02 92.66 137.47 91.58 137.47H90.77C80.87 135.49 72.95 130.72 67.01 123.16C61.25 115.42 58.37 106.6 58.37 96.7C58.37 95.8 58.37 94.99 58.37 94.27C58.37 93.37 58.46 92.56 58.64 91.84C59.18 88.06 59.81 84.37 60.53 80.77C61.43 76.99 62.6 73.39 64.04 69.97C68.9 58.27 76.01 48.19 85.37 39.73C94.73 31.27 105.44 24.34 117.5 18.94C129.56 13.54 141.98 9.4 154.76 6.51999C167.54 3.63999 179.69 1.93 191.21 1.38999C192.29 1.20999 193.37 1.12 194.45 1.12C195.53 1.12 196.7 1.12 197.96 1.12C208.4 1.12 218.75 1.74999 229.01 3.00999C239.27 4.08999 249.62 4.63 260.06 4.63C263.66 4.63 266.18 4.08999 267.62 3.00999C269.06 1.74999 270.05 1.12 270.59 1.12C270.95 1.12 271.13 1.29999 271.13 1.65999C271.13 2.19999 270.95 2.73999 270.59 3.27998C270.41 3.81999 270.14 4.44999 269.78 5.16999C268.52 7.68999 267.62 9.84999 267.08 11.65C266.54 13.45 264.83 15.34 261.95 17.32C257.63 23.62 253.49 30.01 249.53 36.49C245.75 42.97 241.79 49.45 237.65 55.93C231.17 66.37 224.51 76.72 217.67 86.98C210.83 97.24 203.72 107.32 196.34 117.22L200.93 121.27C212.27 109.03 224.6 96.61 237.92 84.01C251.42 71.23 265.46 59.26 280.04 48.1C294.8 36.76 309.56 27.31 324.32 19.75C329.72 16.87 335.84 13.99 342.68 11.11C349.7 8.22999 356.81 5.79999 364.01 3.81999C371.39 1.83999 378.14 0.849983 384.26 0.849983C388.4 0.849983 391.64 2.01998 393.98 4.35999C396.32 6.69999 397.94 9.66999 398.84 13.27C399.92 16.69 400.46 20.2 400.46 23.8C400.46 25.06 400.28 26.68 399.92 28.66C399.74 30.64 399.02 31.63 397.76 31.63C396.32 31.63 395.6 30.91 395.6 29.47C395.6 28.21 395.78 26.95 396.14 25.69C396.5 24.25 396.68 22.9 396.68 21.64C396.68 14.8 393.17 11.38 386.15 11.38H385.34C373.46 11.56 360.86 14.35 347.54 19.75C334.4 24.97 321.08 31.81 307.58 40.27C294.26 48.73 281.3 58 268.7 68.08C256.1 78.16 244.4 88.24 233.6 98.32C222.98 108.22 213.71 117.13 205.79 125.05C222.89 139.99 239.72 155.2 256.28 170.68C272.84 185.98 290.57 200.02 309.47 212.8C311.81 214.24 314.78 216.22 318.38 218.74C322.16 221.44 326.03 223.78 329.99 225.76C333.95 227.74 337.28 228.73 339.98 228.73C343.58 228.73 346.01 227.38 347.27 224.68C348.71 222.16 349.79 219.55 350.51 216.85C350.51 216.49 350.69 216.31 351.05 216.31C351.77 216.31 352.4 216.94 352.94 218.2C353.48 219.46 353.75 220.36 353.75 220.9V221.44C352.31 227.38 349.7 232.78 345.92 237.64C342.32 242.5 337.1 244.93 330.26 244.93Z" fill="url(#paint0_linear_105_18)"/>
</g>
<defs>
<filter id="filter0_b_105_18" x="-3.41003" y="-3.15002" width="407.87" height="252.08" filterUnits="userSpaceOnUse" color-interpolation-filters="sRGB">
<feFlood flood-opacity="0" result="BackgroundImageFix"/>
<feGaussianBlur in="BackgroundImage" stdDeviation="2"/>
<feComposite in2="SourceAlpha" operator="in" result="effect1_backgroundBlur_105_18"/>
<feBlend mode="normal" in="SourceGraphic" in2="effect1_backgroundBlur_105_18" result="shape"/>
</filter>
<linearGradient id="paint0_linear_105_18" x1="33.5" y1="-36.5" x2="391" y2="262" gradientUnits="userSpaceOnUse">
<stop stop-color="#08FEE7" stop-opacity="0"/>
<stop offset="0.0001" stop-color="#00D6C2"/>
<stop offset="1" stop-color="#00B6D3"/>
</linearGradient>
</defs>
</svg>
