<svg width="779" height="500" viewBox="0 0 779 500" fill="none" xmlns="http://www.w3.org/2000/svg">
<g filter="url(#filter0_ddddd_109_19)">
<path fill-rule="evenodd" clip-rule="evenodd" d="M617 141C617 102.34 585.66 71 547 71C514.201 71 486.671 93.5581 479.077 124.006C468.988 121.391 458.407 120 447.5 120C394.749 120 349.599 152.546 331.036 198.653C313.087 181.52 288.772 171 262 171C206.772 171 162 215.772 162 271C162 326.228 206.772 371 262 371C298.59 371 330.59 351.348 348.022 322.023C370.968 351.809 406.993 371 447.5 371C516.812 371 573 314.812 573 245.5C573 232.441 571.006 219.849 567.305 208.01C596.063 199.307 617 172.599 617 141ZM567.305 208.01C560.878 209.954 554.061 211 547 211C508.34 211 477 179.66 477 141C477 135.139 477.72 129.447 479.077 124.006C521.024 134.877 554.453 166.898 567.305 208.01ZM348.022 322.023C356.901 307.086 362 289.638 362 271C362 242.543 350.114 216.863 331.036 198.653C325.208 213.128 322 228.939 322 245.5C322 274.305 331.704 300.843 348.022 322.023Z" fill="url(#paint0_linear_109_19)"/>
<path fill-rule="evenodd" clip-rule="evenodd" d="M617 141C617 102.34 585.66 71 547 71C514.201 71 486.671 93.5581 479.077 124.006C468.988 121.391 458.407 120 447.5 120C394.749 120 349.599 152.546 331.036 198.653C313.087 181.52 288.772 171 262 171C206.772 171 162 215.772 162 271C162 326.228 206.772 371 262 371C298.59 371 330.59 351.348 348.022 322.023C370.968 351.809 406.993 371 447.5 371C516.812 371 573 314.812 573 245.5C573 232.441 571.006 219.849 567.305 208.01C596.063 199.307 617 172.599 617 141ZM567.305 208.01C560.878 209.954 554.061 211 547 211C508.34 211 477 179.66 477 141C477 135.139 477.72 129.447 479.077 124.006C521.024 134.877 554.453 166.898 567.305 208.01ZM348.022 322.023C356.901 307.086 362 289.638 362 271C362 242.543 350.114 216.863 331.036 198.653C325.208 213.128 322 228.939 322 245.5C322 274.305 331.704 300.843 348.022 322.023Z" fill="url(#paint1_linear_109_19)"/>
</g>
<g filter="url(#filter1_dddddd_109_19)">
<path d="M573.26 376.93C568.76 376.93 564.08 375.67 559.22 373.15C554.54 370.81 549.95 368.02 545.45 364.78C541.13 361.54 537.35 358.57 534.11 355.87C517.55 342.01 501.8 327.16 486.86 311.32C471.92 295.48 456.53 280.18 440.69 265.42C434.75 271.72 428.9 278.11 423.14 284.59C417.56 291.07 411.98 297.64 406.4 304.3C403.88 307.18 401.36 310.24 398.84 313.48C396.5 316.54 394.07 319.6 391.55 322.66C391.01 323.2 390.38 323.47 389.66 323.47C389.12 323.47 388.49 323.29 387.77 322.93C387.05 322.39 386.69 321.76 386.69 321.04C386.69 320.5 388.13 318.34 391.01 314.56C394.07 310.78 397.85 306.19 402.35 300.79C407.03 295.39 411.71 289.9 416.39 284.32C421.25 278.74 425.48 273.88 429.08 269.74C432.86 265.6 435.29 262.9 436.37 261.64L432.59 258.13C424.31 268.75 415.13 279.28 405.05 289.72C394.97 300.16 384.08 309.7 372.38 318.34C360.68 326.8 348.26 333.55 335.12 338.59C321.98 343.81 308.21 346.42 293.81 346.42C288.41 346.42 282.74 345.88 276.8 344.8C271.04 343.72 265.64 341.83 260.6 339.13C255.56 336.61 251.42 333.19 248.18 328.87C245.12 324.37 243.59 318.88 243.59 312.4C243.59 307.72 244.49 302.77 246.29 297.55C248.09 292.33 250.7 288.19 254.12 285.13C254.66 284.59 255.29 284.32 256.01 284.32C256.37 284.32 256.55 284.5 256.55 284.86C256.55 285.58 255.56 287.02 253.58 289.18C251.78 291.34 250.88 294.4 250.88 298.36V300.52C252.32 309.52 255.74 316.81 261.14 322.39C266.54 327.97 273.11 331.93 280.85 334.27C288.59 336.79 296.6 338.05 304.88 338.05C309.92 338.05 315.05 337.6 320.27 336.7C325.49 335.8 330.35 334.45 334.85 332.65C342.77 329.41 350.78 324.55 358.88 318.07C366.98 311.59 374.81 304.3 382.37 296.2C390.11 287.92 397.31 279.64 403.97 271.36C410.63 262.9 416.39 255.25 421.25 248.41L411.53 240.85C409.91 244.81 408.2 248.77 406.4 252.73C404.6 256.69 402.8 260.56 401 264.34C400.64 264.88 399.92 266.05 398.84 267.85C397.76 269.65 396.77 270.55 395.87 270.55C395.69 270.55 395.51 270.37 395.33 270.01C395.33 269.65 395.33 269.38 395.33 269.2C395.33 268.12 395.42 267.13 395.6 266.23C395.96 265.15 396.23 264.16 396.41 263.26C397.67 258.58 398.75 253.81 399.65 248.95C400.55 244.09 401.36 239.23 402.08 234.37C397.76 231.49 393.35 229.06 388.85 227.08C384.53 225.1 380.3 224.11 376.16 224.11C373.82 224.11 371.84 224.56 370.22 225.46C368.78 226.18 367.61 226.54 366.71 226.54C365.09 226.54 364.28 225.82 364.28 224.38C364.28 223.12 365.63 222.04 368.33 221.14C371.03 220.24 373.91 219.61 376.97 219.25C380.03 218.71 382.01 218.44 382.91 218.44C386.51 218.44 390.02 218.89 393.44 219.79C396.86 220.51 400.1 221.59 403.16 223.03C403.34 221.05 403.43 219.07 403.43 217.09C403.61 215.11 403.7 213.22 403.7 211.42C403.7 209.8 403.61 207.82 403.43 205.48C403.25 202.96 402.71 200.8 401.81 199C401.09 197.02 399.74 196.03 397.76 196.03C395.78 196.03 394.52 196.75 393.98 198.19C393.44 199.45 392.72 200.08 391.82 200.08C391.46 200.08 391.28 199.9 391.28 199.54C391.28 199 391.46 198.37 391.82 197.65C393.44 194.41 395.69 191.26 398.57 188.2C401.63 184.96 405.14 183.34 409.1 183.34C412.52 183.34 414.95 184.51 416.39 186.85C418.01 189.01 419 191.62 419.36 194.68C419.9 197.56 420.17 200.26 420.17 202.78C420.17 207.28 419.72 211.87 418.82 216.55C417.92 221.05 416.75 225.55 415.31 230.05C417.47 231.49 419.54 233.02 421.52 234.64C423.68 236.26 425.75 237.88 427.73 239.5C437.81 225.28 447.35 210.79 456.35 196.03C465.53 181.27 474.26 166.24 482.54 150.94C472.1 149.68 461.66 148.6 451.22 147.7C440.78 146.8 430.25 146.35 419.63 146.35C409.91 146.35 400.19 146.98 390.47 148.24C380.93 149.5 371.84 152.02 363.2 155.8C354.74 159.4 347.09 165.07 340.25 172.81C333.59 180.19 328.19 189.28 324.05 200.08C319.91 210.88 317.84 221.32 317.84 231.4C317.84 238.78 319.01 245.35 321.35 251.11C323.87 256.87 328.28 261.82 334.58 265.96C335.66 266.68 336.2 267.4 336.2 268.12C336.2 269.02 335.66 269.47 334.58 269.47H333.77C323.87 267.49 315.95 262.72 310.01 255.16C304.25 247.42 301.37 238.6 301.37 228.7C301.37 227.8 301.37 226.99 301.37 226.27C301.37 225.37 301.46 224.56 301.64 223.84C302.18 220.06 302.81 216.37 303.53 212.77C304.43 208.99 305.6 205.39 307.04 201.97C311.9 190.27 319.01 180.19 328.37 171.73C337.73 163.27 348.44 156.34 360.5 150.94C372.56 145.54 384.98 141.4 397.76 138.52C410.54 135.64 422.69 133.93 434.21 133.39C435.29 133.21 436.37 133.12 437.45 133.12C438.53 133.12 439.7 133.12 440.96 133.12C451.4 133.12 461.75 133.75 472.01 135.01C482.27 136.09 492.62 136.63 503.06 136.63C506.66 136.63 509.18 136.09 510.62 135.01C512.06 133.75 513.05 133.12 513.59 133.12C513.95 133.12 514.13 133.3 514.13 133.66C514.13 134.2 513.95 134.74 513.59 135.28C513.41 135.82 513.14 136.45 512.78 137.17C511.52 139.69 510.62 141.85 510.08 143.65C509.54 145.45 507.83 147.34 504.95 149.32C500.63 155.62 496.49 162.01 492.53 168.49C488.75 174.97 484.79 181.45 480.65 187.93C474.17 198.37 467.51 208.72 460.67 218.98C453.83 229.24 446.72 239.32 439.34 249.22L443.93 253.27C455.27 241.03 467.6 228.61 480.92 216.01C494.42 203.23 508.46 191.26 523.04 180.1C537.8 168.76 552.56 159.31 567.32 151.75C572.72 148.87 578.84 145.99 585.68 143.11C592.7 140.23 599.81 137.8 607.01 135.82C614.39 133.84 621.14 132.85 627.26 132.85C631.4 132.85 634.64 134.02 636.98 136.36C639.32 138.7 640.94 141.67 641.84 145.27C642.92 148.69 643.46 152.2 643.46 155.8C643.46 157.06 643.28 158.68 642.92 160.66C642.74 162.64 642.02 163.63 640.76 163.63C639.32 163.63 638.6 162.91 638.6 161.47C638.6 160.21 638.78 158.95 639.14 157.69C639.5 156.25 639.68 154.9 639.68 153.64C639.68 146.8 636.17 143.38 629.15 143.38H628.34C616.46 143.56 603.86 146.35 590.54 151.75C577.4 156.97 564.08 163.81 550.58 172.27C537.26 180.73 524.3 190 511.7 200.08C499.1 210.16 487.4 220.24 476.6 230.32C465.98 240.22 456.71 249.13 448.79 257.05C465.89 271.99 482.72 287.2 499.28 302.68C515.84 317.98 533.57 332.02 552.47 344.8C554.81 346.24 557.78 348.22 561.38 350.74C565.16 353.44 569.03 355.78 572.99 357.76C576.95 359.74 580.28 360.73 582.98 360.73C586.58 360.73 589.01 359.38 590.27 356.68C591.71 354.16 592.79 351.55 593.51 348.85C593.51 348.49 593.69 348.31 594.05 348.31C594.77 348.31 595.4 348.94 595.94 350.2C596.48 351.46 596.75 352.36 596.75 352.9V353.44C595.31 359.38 592.7 364.78 588.92 369.64C585.32 374.5 580.1 376.93 573.26 376.93Z" fill="url(#paint2_linear_109_19)"/>
</g>
<defs>
<filter id="filter0_ddddd_109_19" x="0" y="-89" width="779" height="624" filterUnits="userSpaceOnUse" color-interpolation-filters="sRGB">
<feFlood flood-opacity="0" result="BackgroundImageFix"/>
<feColorMatrix in="SourceAlpha" type="matrix" values="0 0 0 0 0 0 0 0 0 0 0 0 0 0 0 0 0 0 127 0" result="hardAlpha"/>
<feOffset dy="0.0686979"/>
<feGaussianBlur stdDeviation="2.78226"/>
<feColorMatrix type="matrix" values="0 0 0 0 1 0 0 0 0 1 0 0 0 0 1 0 0 0 0.01 0"/>
<feBlend mode="normal" in2="BackgroundImageFix" result="effect1_dropShadow_109_19"/>
<feColorMatrix in="SourceAlpha" type="matrix" values="0 0 0 0 0 0 0 0 0 0 0 0 0 0 0 0 0 0 127 0" result="hardAlpha"/>
<feOffset dy="0.173742"/>
<feGaussianBlur stdDeviation="7.03655"/>
<feColorMatrix type="matrix" values="0 0 0 0 1 0 0 0 0 1 0 0 0 0 1 0 0 0 0.0133113 0"/>
<feBlend mode="normal" in2="effect1_dropShadow_109_19" result="effect2_dropShadow_109_19"/>
<feColorMatrix in="SourceAlpha" type="matrix" values="0 0 0 0 0 0 0 0 0 0 0 0 0 0 0 0 0 0 127 0" result="hardAlpha"/>
<feOffset dy="0.354417"/>
<feGaussianBlur stdDeviation="14.3539"/>
<feColorMatrix type="matrix" values="0 0 0 0 1 0 0 0 0 1 0 0 0 0 1 0 0 0 0.0166887 0"/>
<feBlend mode="normal" in2="effect2_dropShadow_109_19" result="effect3_dropShadow_109_19"/>
<feColorMatrix in="SourceAlpha" type="matrix" values="0 0 0 0 0 0 0 0 0 0 0 0 0 0 0 0 0 0 127 0" result="hardAlpha"/>
<feOffset dy="0.730033"/>
<feGaussianBlur stdDeviation="29.5663"/>
<feColorMatrix type="matrix" values="0 0 0 0 1 0 0 0 0 1 0 0 0 0 1 0 0 0 0.0206994 0"/>
<feBlend mode="normal" in2="effect3_dropShadow_109_19" result="effect4_dropShadow_109_19"/>
<feColorMatrix in="SourceAlpha" type="matrix" values="0 0 0 0 0 0 0 0 0 0 0 0 0 0 0 0 0 0 127 0" result="hardAlpha"/>
<feOffset dy="2"/>
<feGaussianBlur stdDeviation="81"/>
<feColorMatrix type="matrix" values="0 0 0 0 1 0 0 0 0 1 0 0 0 0 1 0 0 0 0.03 0"/>
<feBlend mode="normal" in2="effect4_dropShadow_109_19" result="effect5_dropShadow_109_19"/>
<feBlend mode="normal" in="SourceGraphic" in2="effect5_dropShadow_109_19" result="shape"/>
</filter>
<filter id="filter1_dddddd_109_19" x="163.59" y="132.85" width="559.87" height="424.08" filterUnits="userSpaceOnUse" color-interpolation-filters="sRGB">
<feFlood flood-opacity="0" result="BackgroundImageFix"/>
<feColorMatrix in="SourceAlpha" type="matrix" values="0 0 0 0 0 0 0 0 0 0 0 0 0 0 0 0 0 0 127 0" result="hardAlpha"/>
<feOffset dy="2.76726"/>
<feGaussianBlur stdDeviation="1.1069"/>
<feColorMatrix type="matrix" values="0 0 0 0 0 0 0 0 0 0 0 0 0 0 0 0 0 0 0.0196802 0"/>
<feBlend mode="normal" in2="BackgroundImageFix" result="effect1_dropShadow_109_19"/>
<feColorMatrix in="SourceAlpha" type="matrix" values="0 0 0 0 0 0 0 0 0 0 0 0 0 0 0 0 0 0 127 0" result="hardAlpha"/>
<feOffset dy="6.6501"/>
<feGaussianBlur stdDeviation="2.66004"/>
<feColorMatrix type="matrix" values="0 0 0 0 0 0 0 0 0 0 0 0 0 0 0 0 0 0 0.0282725 0"/>
<feBlend mode="normal" in2="effect1_dropShadow_109_19" result="effect2_dropShadow_109_19"/>
<feColorMatrix in="SourceAlpha" type="matrix" values="0 0 0 0 0 0 0 0 0 0 0 0 0 0 0 0 0 0 127 0" result="hardAlpha"/>
<feOffset dy="12.5216"/>
<feGaussianBlur stdDeviation="5.00862"/>
<feColorMatrix type="matrix" values="0 0 0 0 0 0 0 0 0 0 0 0 0 0 0 0 0 0 0.035 0"/>
<feBlend mode="normal" in2="effect2_dropShadow_109_19" result="effect3_dropShadow_109_19"/>
<feColorMatrix in="SourceAlpha" type="matrix" values="0 0 0 0 0 0 0 0 0 0 0 0 0 0 0 0 0 0 127 0" result="hardAlpha"/>
<feOffset dy="22.3363"/>
<feGaussianBlur stdDeviation="8.93452"/>
<feColorMatrix type="matrix" values="0 0 0 0 0 0 0 0 0 0 0 0 0 0 0 0 0 0 0.0417275 0"/>
<feBlend mode="normal" in2="effect3_dropShadow_109_19" result="effect4_dropShadow_109_19"/>
<feColorMatrix in="SourceAlpha" type="matrix" values="0 0 0 0 0 0 0 0 0 0 0 0 0 0 0 0 0 0 127 0" result="hardAlpha"/>
<feOffset dy="41.7776"/>
<feGaussianBlur stdDeviation="16.711"/>
<feColorMatrix type="matrix" values="0 0 0 0 0 0 0 0 0 0 0 0 0 0 0 0 0 0 0.0503198 0"/>
<feBlend mode="normal" in2="effect4_dropShadow_109_19" result="effect5_dropShadow_109_19"/>
<feColorMatrix in="SourceAlpha" type="matrix" values="0 0 0 0 0 0 0 0 0 0 0 0 0 0 0 0 0 0 127 0" result="hardAlpha"/>
<feOffset dy="100"/>
<feGaussianBlur stdDeviation="40"/>
<feColorMatrix type="matrix" values="0 0 0 0 0 0 0 0 0 0 0 0 0 0 0 0 0 0 0.07 0"/>
<feBlend mode="normal" in2="effect5_dropShadow_109_19" result="effect6_dropShadow_109_19"/>
<feBlend mode="normal" in="SourceGraphic" in2="effect6_dropShadow_109_19" result="shape"/>
</filter>
<linearGradient id="paint0_linear_109_19" x1="274.5" y1="22" x2="617" y2="516" gradientUnits="userSpaceOnUse">
<stop stop-color="white"/>
<stop offset="1" stop-color="#4FD1C5"/>
</linearGradient>
<linearGradient id="paint1_linear_109_19" x1="281" y1="-14" x2="389.5" y2="371" gradientUnits="userSpaceOnUse">
<stop offset="0.255688" stop-color="#26CDBE"/>
<stop offset="0.714469" stop-color="white" stop-opacity="0.15"/>
<stop offset="1" stop-color="#09F5E0" stop-opacity="0"/>
</linearGradient>
<linearGradient id="paint2_linear_109_19" x1="319.5" y1="131.5" x2="589.5" y2="393" gradientUnits="userSpaceOnUse">
<stop stop-color="white"/>
<stop offset="0.0001" stop-color="white"/>
<stop offset="0.374617" stop-color="white"/>
<stop offset="0.705285" stop-color="white"/>
<stop offset="0.984375" stop-color="#30808D"/>
<stop offset="0.984475" stop-color="#84C2CC"/>
</linearGradient>
</defs>
</svg>
