<svg width="642" height="487" viewBox="0 0 642 487" fill="none" xmlns="http://www.w3.org/2000/svg">
<g filter="url(#filter0_ddddd_109_20)">
<path fill-rule="evenodd" clip-rule="evenodd" d="M535 148C535 109.34 503.66 78 465 78C432.201 78 404.671 100.558 397.077 131.006C386.988 128.391 376.407 127 365.5 127C312.749 127 267.599 159.546 249.036 205.653C231.087 188.52 206.772 178 180 178C124.772 178 80 222.772 80 278C80 333.228 124.772 378 180 378C216.59 378 248.59 358.348 266.022 329.023C288.968 358.809 324.993 378 365.5 378C434.812 378 491 321.812 491 252.5C491 239.441 489.006 226.849 485.305 215.01C514.063 206.307 535 179.599 535 148ZM485.305 215.01C478.878 216.954 472.061 218 465 218C426.34 218 395 186.66 395 148C395 142.139 395.72 136.447 397.077 131.006C439.024 141.877 472.453 173.898 485.305 215.01ZM266.022 329.023C274.901 314.086 280 296.638 280 278C280 249.543 268.114 223.863 249.036 205.653C243.208 220.128 240 235.939 240 252.5C240 281.305 249.704 307.843 266.022 329.023Z" fill="url(#paint0_linear_109_20)"/>
<path fill-rule="evenodd" clip-rule="evenodd" d="M535 148C535 109.34 503.66 78 465 78C432.201 78 404.671 100.558 397.077 131.006C386.988 128.391 376.407 127 365.5 127C312.749 127 267.599 159.546 249.036 205.653C231.087 188.52 206.772 178 180 178C124.772 178 80 222.772 80 278C80 333.228 124.772 378 180 378C216.59 378 248.59 358.348 266.022 329.023C288.968 358.809 324.993 378 365.5 378C434.812 378 491 321.812 491 252.5C491 239.441 489.006 226.849 485.305 215.01C514.063 206.307 535 179.599 535 148ZM485.305 215.01C478.878 216.954 472.061 218 465 218C426.34 218 395 186.66 395 148C395 142.139 395.72 136.447 397.077 131.006C439.024 141.877 472.453 173.898 485.305 215.01ZM266.022 329.023C274.901 314.086 280 296.638 280 278C280 249.543 268.114 223.863 249.036 205.653C243.208 220.128 240 235.939 240 252.5C240 281.305 249.704 307.843 266.022 329.023Z" fill="url(#paint1_linear_109_20)"/>
</g>
<g filter="url(#filter1_dddddd_109_20)">
<path d="M491.26 383.93C486.76 383.93 482.08 382.67 477.22 380.15C472.54 377.81 467.95 375.02 463.45 371.78C459.13 368.54 455.35 365.57 452.11 362.87C435.55 349.01 419.8 334.16 404.86 318.32C389.92 302.48 374.53 287.18 358.69 272.42C352.75 278.72 346.9 285.11 341.14 291.59C335.56 298.07 329.98 304.64 324.4 311.3C321.88 314.18 319.36 317.24 316.84 320.48C314.5 323.54 312.07 326.6 309.55 329.66C309.01 330.2 308.38 330.47 307.66 330.47C307.12 330.47 306.49 330.29 305.77 329.93C305.05 329.39 304.69 328.76 304.69 328.04C304.69 327.5 306.13 325.34 309.01 321.56C312.07 317.78 315.85 313.19 320.35 307.79C325.03 302.39 329.71 296.9 334.39 291.32C339.25 285.74 343.48 280.88 347.08 276.74C350.86 272.6 353.29 269.9 354.37 268.64L350.59 265.13C342.31 275.75 333.13 286.28 323.05 296.72C312.97 307.16 302.08 316.7 290.38 325.34C278.68 333.8 266.26 340.55 253.12 345.59C239.98 350.81 226.21 353.42 211.81 353.42C206.41 353.42 200.74 352.88 194.8 351.8C189.04 350.72 183.64 348.83 178.6 346.13C173.56 343.61 169.42 340.19 166.18 335.87C163.12 331.37 161.59 325.88 161.59 319.4C161.59 314.72 162.49 309.77 164.29 304.55C166.09 299.33 168.7 295.19 172.12 292.13C172.66 291.59 173.29 291.32 174.01 291.32C174.37 291.32 174.55 291.5 174.55 291.86C174.55 292.58 173.56 294.02 171.58 296.18C169.78 298.34 168.88 301.4 168.88 305.36V307.52C170.32 316.52 173.74 323.81 179.14 329.39C184.54 334.97 191.11 338.93 198.85 341.27C206.59 343.79 214.6 345.05 222.88 345.05C227.92 345.05 233.05 344.6 238.27 343.7C243.49 342.8 248.35 341.45 252.85 339.65C260.77 336.41 268.78 331.55 276.88 325.07C284.98 318.59 292.81 311.3 300.37 303.2C308.11 294.92 315.31 286.64 321.97 278.36C328.63 269.9 334.39 262.25 339.25 255.41L329.53 247.85C327.91 251.81 326.2 255.77 324.4 259.73C322.6 263.69 320.8 267.56 319 271.34C318.64 271.88 317.92 273.05 316.84 274.85C315.76 276.65 314.77 277.55 313.87 277.55C313.69 277.55 313.51 277.37 313.33 277.01C313.33 276.65 313.33 276.38 313.33 276.2C313.33 275.12 313.42 274.13 313.6 273.23C313.96 272.15 314.23 271.16 314.41 270.26C315.67 265.58 316.75 260.81 317.65 255.95C318.55 251.09 319.36 246.23 320.08 241.37C315.76 238.49 311.35 236.06 306.85 234.08C302.53 232.1 298.3 231.11 294.16 231.11C291.82 231.11 289.84 231.56 288.22 232.46C286.78 233.18 285.61 233.54 284.71 233.54C283.09 233.54 282.28 232.82 282.28 231.38C282.28 230.12 283.63 229.04 286.33 228.14C289.03 227.24 291.91 226.61 294.97 226.25C298.03 225.71 300.01 225.44 300.91 225.44C304.51 225.44 308.02 225.89 311.44 226.79C314.86 227.51 318.1 228.59 321.16 230.03C321.34 228.05 321.43 226.07 321.43 224.09C321.61 222.11 321.7 220.22 321.7 218.42C321.7 216.8 321.61 214.82 321.43 212.48C321.25 209.96 320.71 207.8 319.81 206C319.09 204.02 317.74 203.03 315.76 203.03C313.78 203.03 312.52 203.75 311.98 205.19C311.44 206.45 310.72 207.08 309.82 207.08C309.46 207.08 309.28 206.9 309.28 206.54C309.28 206 309.46 205.37 309.82 204.65C311.44 201.41 313.69 198.26 316.57 195.2C319.63 191.96 323.14 190.34 327.1 190.34C330.52 190.34 332.95 191.51 334.39 193.85C336.01 196.01 337 198.62 337.36 201.68C337.9 204.56 338.17 207.26 338.17 209.78C338.17 214.28 337.72 218.87 336.82 223.55C335.92 228.05 334.75 232.55 333.31 237.05C335.47 238.49 337.54 240.02 339.52 241.64C341.68 243.26 343.75 244.88 345.73 246.5C355.81 232.28 365.35 217.79 374.35 203.03C383.53 188.27 392.26 173.24 400.54 157.94C390.1 156.68 379.66 155.6 369.22 154.7C358.78 153.8 348.25 153.35 337.63 153.35C327.91 153.35 318.19 153.98 308.47 155.24C298.93 156.5 289.84 159.02 281.2 162.8C272.74 166.4 265.09 172.07 258.25 179.81C251.59 187.19 246.19 196.28 242.05 207.08C237.91 217.88 235.84 228.32 235.84 238.4C235.84 245.78 237.01 252.35 239.35 258.11C241.87 263.87 246.28 268.82 252.58 272.96C253.66 273.68 254.2 274.4 254.2 275.12C254.2 276.02 253.66 276.47 252.58 276.47H251.77C241.87 274.49 233.95 269.72 228.01 262.16C222.25 254.42 219.37 245.6 219.37 235.7C219.37 234.8 219.37 233.99 219.37 233.27C219.37 232.37 219.46 231.56 219.64 230.84C220.18 227.06 220.81 223.37 221.53 219.77C222.43 215.99 223.6 212.39 225.04 208.97C229.9 197.27 237.01 187.19 246.37 178.73C255.73 170.27 266.44 163.34 278.5 157.94C290.56 152.54 302.98 148.4 315.76 145.52C328.54 142.64 340.69 140.93 352.21 140.39C353.29 140.21 354.37 140.12 355.45 140.12C356.53 140.12 357.7 140.12 358.96 140.12C369.4 140.12 379.75 140.75 390.01 142.01C400.27 143.09 410.62 143.63 421.06 143.63C424.66 143.63 427.18 143.09 428.62 142.01C430.06 140.75 431.05 140.12 431.59 140.12C431.95 140.12 432.13 140.3 432.13 140.66C432.13 141.2 431.95 141.74 431.59 142.28C431.41 142.82 431.14 143.45 430.78 144.17C429.52 146.69 428.62 148.85 428.08 150.65C427.54 152.45 425.83 154.34 422.95 156.32C418.63 162.62 414.49 169.01 410.53 175.49C406.75 181.97 402.79 188.45 398.65 194.93C392.17 205.37 385.51 215.72 378.67 225.98C371.83 236.24 364.72 246.32 357.34 256.22L361.93 260.27C373.27 248.03 385.6 235.61 398.92 223.01C412.42 210.23 426.46 198.26 441.04 187.1C455.8 175.76 470.56 166.31 485.32 158.75C490.72 155.87 496.84 152.99 503.68 150.11C510.7 147.23 517.81 144.8 525.01 142.82C532.39 140.84 539.14 139.85 545.26 139.85C549.4 139.85 552.64 141.02 554.98 143.36C557.32 145.7 558.94 148.67 559.84 152.27C560.92 155.69 561.46 159.2 561.46 162.8C561.46 164.06 561.28 165.68 560.92 167.66C560.74 169.64 560.02 170.63 558.76 170.63C557.32 170.63 556.6 169.91 556.6 168.47C556.6 167.21 556.78 165.95 557.14 164.69C557.5 163.25 557.68 161.9 557.68 160.64C557.68 153.8 554.17 150.38 547.15 150.38H546.34C534.46 150.56 521.86 153.35 508.54 158.75C495.4 163.97 482.08 170.81 468.58 179.27C455.26 187.73 442.3 197 429.7 207.08C417.1 217.16 405.4 227.24 394.6 237.32C383.98 247.22 374.71 256.13 366.79 264.05C383.89 278.99 400.72 294.2 417.28 309.68C433.84 324.98 451.57 339.02 470.47 351.8C472.81 353.24 475.78 355.22 479.38 357.74C483.16 360.44 487.03 362.78 490.99 364.76C494.95 366.74 498.28 367.73 500.98 367.73C504.58 367.73 507.01 366.38 508.27 363.68C509.71 361.16 510.79 358.55 511.51 355.85C511.51 355.49 511.69 355.31 512.05 355.31C512.77 355.31 513.4 355.94 513.94 357.2C514.48 358.46 514.75 359.36 514.75 359.9V360.44C513.31 366.38 510.7 371.78 506.92 376.64C503.32 381.5 498.1 383.93 491.26 383.93Z" fill="url(#paint2_linear_109_20)"/>
</g>
<defs>
<filter id="filter0_ddddd_109_20" x="0" y="0" width="615" height="460" filterUnits="userSpaceOnUse" color-interpolation-filters="sRGB">
<feFlood flood-opacity="0" result="BackgroundImageFix"/>
<feColorMatrix in="SourceAlpha" type="matrix" values="0 0 0 0 0 0 0 0 0 0 0 0 0 0 0 0 0 0 127 0" result="hardAlpha"/>
<feOffset dy="0.0686979"/>
<feGaussianBlur stdDeviation="1.37396"/>
<feColorMatrix type="matrix" values="0 0 0 0 0 0 0 0 0 0 0 0 0 0 0 0 0 0 0.01 0"/>
<feBlend mode="normal" in2="BackgroundImageFix" result="effect1_dropShadow_109_20"/>
<feColorMatrix in="SourceAlpha" type="matrix" values="0 0 0 0 0 0 0 0 0 0 0 0 0 0 0 0 0 0 127 0" result="hardAlpha"/>
<feOffset dy="0.173742"/>
<feGaussianBlur stdDeviation="3.47484"/>
<feColorMatrix type="matrix" values="0 0 0 0 0 0 0 0 0 0 0 0 0 0 0 0 0 0 0.0133113 0"/>
<feBlend mode="normal" in2="effect1_dropShadow_109_20" result="effect2_dropShadow_109_20"/>
<feColorMatrix in="SourceAlpha" type="matrix" values="0 0 0 0 0 0 0 0 0 0 0 0 0 0 0 0 0 0 127 0" result="hardAlpha"/>
<feOffset dy="0.354417"/>
<feGaussianBlur stdDeviation="7.08835"/>
<feColorMatrix type="matrix" values="0 0 0 0 0 0 0 0 0 0 0 0 0 0 0 0 0 0 0.0166887 0"/>
<feBlend mode="normal" in2="effect2_dropShadow_109_20" result="effect3_dropShadow_109_20"/>
<feColorMatrix in="SourceAlpha" type="matrix" values="0 0 0 0 0 0 0 0 0 0 0 0 0 0 0 0 0 0 127 0" result="hardAlpha"/>
<feOffset dy="0.730033"/>
<feGaussianBlur stdDeviation="14.6007"/>
<feColorMatrix type="matrix" values="0 0 0 0 0 0 0 0 0 0 0 0 0 0 0 0 0 0 0.0206994 0"/>
<feBlend mode="normal" in2="effect3_dropShadow_109_20" result="effect4_dropShadow_109_20"/>
<feColorMatrix in="SourceAlpha" type="matrix" values="0 0 0 0 0 0 0 0 0 0 0 0 0 0 0 0 0 0 127 0" result="hardAlpha"/>
<feOffset dy="2"/>
<feGaussianBlur stdDeviation="40"/>
<feColorMatrix type="matrix" values="0 0 0 0 0 0 0 0 0 0 0 0 0 0 0 0 0 0 0.03 0"/>
<feBlend mode="normal" in2="effect4_dropShadow_109_20" result="effect5_dropShadow_109_20"/>
<feBlend mode="normal" in="SourceGraphic" in2="effect5_dropShadow_109_20" result="shape"/>
</filter>
<filter id="filter1_dddddd_109_20" x="81.59" y="139.85" width="559.87" height="424.08" filterUnits="userSpaceOnUse" color-interpolation-filters="sRGB">
<feFlood flood-opacity="0" result="BackgroundImageFix"/>
<feColorMatrix in="SourceAlpha" type="matrix" values="0 0 0 0 0 0 0 0 0 0 0 0 0 0 0 0 0 0 127 0" result="hardAlpha"/>
<feOffset dy="2.76726"/>
<feGaussianBlur stdDeviation="1.1069"/>
<feColorMatrix type="matrix" values="0 0 0 0 0 0 0 0 0 0 0 0 0 0 0 0 0 0 0.0196802 0"/>
<feBlend mode="normal" in2="BackgroundImageFix" result="effect1_dropShadow_109_20"/>
<feColorMatrix in="SourceAlpha" type="matrix" values="0 0 0 0 0 0 0 0 0 0 0 0 0 0 0 0 0 0 127 0" result="hardAlpha"/>
<feOffset dy="6.6501"/>
<feGaussianBlur stdDeviation="2.66004"/>
<feColorMatrix type="matrix" values="0 0 0 0 0 0 0 0 0 0 0 0 0 0 0 0 0 0 0.0282725 0"/>
<feBlend mode="normal" in2="effect1_dropShadow_109_20" result="effect2_dropShadow_109_20"/>
<feColorMatrix in="SourceAlpha" type="matrix" values="0 0 0 0 0 0 0 0 0 0 0 0 0 0 0 0 0 0 127 0" result="hardAlpha"/>
<feOffset dy="12.5216"/>
<feGaussianBlur stdDeviation="5.00862"/>
<feColorMatrix type="matrix" values="0 0 0 0 0 0 0 0 0 0 0 0 0 0 0 0 0 0 0.035 0"/>
<feBlend mode="normal" in2="effect2_dropShadow_109_20" result="effect3_dropShadow_109_20"/>
<feColorMatrix in="SourceAlpha" type="matrix" values="0 0 0 0 0 0 0 0 0 0 0 0 0 0 0 0 0 0 127 0" result="hardAlpha"/>
<feOffset dy="22.3363"/>
<feGaussianBlur stdDeviation="8.93452"/>
<feColorMatrix type="matrix" values="0 0 0 0 0 0 0 0 0 0 0 0 0 0 0 0 0 0 0.0417275 0"/>
<feBlend mode="normal" in2="effect3_dropShadow_109_20" result="effect4_dropShadow_109_20"/>
<feColorMatrix in="SourceAlpha" type="matrix" values="0 0 0 0 0 0 0 0 0 0 0 0 0 0 0 0 0 0 127 0" result="hardAlpha"/>
<feOffset dy="41.7776"/>
<feGaussianBlur stdDeviation="16.711"/>
<feColorMatrix type="matrix" values="0 0 0 0 0 0 0 0 0 0 0 0 0 0 0 0 0 0 0.0503198 0"/>
<feBlend mode="normal" in2="effect4_dropShadow_109_20" result="effect5_dropShadow_109_20"/>
<feColorMatrix in="SourceAlpha" type="matrix" values="0 0 0 0 0 0 0 0 0 0 0 0 0 0 0 0 0 0 127 0" result="hardAlpha"/>
<feOffset dy="100"/>
<feGaussianBlur stdDeviation="40"/>
<feColorMatrix type="matrix" values="0 0 0 0 0 0 0 0 0 0 0 0 0 0 0 0 0 0 0.07 0"/>
<feBlend mode="normal" in2="effect5_dropShadow_109_20" result="effect6_dropShadow_109_20"/>
<feBlend mode="normal" in="SourceGraphic" in2="effect6_dropShadow_109_20" result="shape"/>
</filter>
<linearGradient id="paint0_linear_109_20" x1="192.5" y1="29" x2="535" y2="523" gradientUnits="userSpaceOnUse">
<stop stop-color="white"/>
<stop offset="1" stop-color="#4FD1C5"/>
</linearGradient>
<linearGradient id="paint1_linear_109_20" x1="199" y1="-7" x2="307.5" y2="378" gradientUnits="userSpaceOnUse">
<stop offset="0.255688" stop-color="#26CDBE"/>
<stop offset="0.714469" stop-color="white" stop-opacity="0.15"/>
<stop offset="1" stop-color="#09F5E0" stop-opacity="0"/>
</linearGradient>
<linearGradient id="paint2_linear_109_20" x1="237.5" y1="138.5" x2="483" y2="392.5" gradientUnits="userSpaceOnUse">
<stop/>
<stop offset="0.0001" stop-color="#236671"/>
<stop offset="0.374617"/>
<stop offset="0.705285" stop-color="#0E4149"/>
<stop offset="0.984375" stop-color="#30808D"/>
</linearGradient>
</defs>
</svg>
