<svg width="30" height="30" viewBox="0 0 30 30" fill="none" xmlns="http://www.w3.org/2000/svg">
<path d="M20.63 20C18.26 20.0323 15.9729 19.1284 14.2654 17.4845C12.5578 15.8406 11.5677 13.5895 11.51 11.22C11.5104 10.0573 11.7464 8.90682 12.2035 7.83781C12.6607 6.76881 13.3296 5.80346 14.17 5C11.6787 5.24598 9.36563 6.40221 7.67367 8.24731C5.98171 10.0924 5.02973 12.4968 5 15C5.06038 17.7063 6.19095 20.2784 8.14403 22.1527C10.0971 24.0271 12.7135 25.0509 15.42 25C17.4355 25.0176 19.4129 24.4508 21.1131 23.3683C22.8132 22.2857 24.1633 20.7337 25 18.9C23.6555 19.6194 22.1548 19.9971 20.63 20V20Z" stroke="black" stroke-width="2" stroke-linecap="round" stroke-linejoin="round"/>
</svg>
