<svg width="31" height="31" viewBox="0 0 31 31" fill="none" xmlns="http://www.w3.org/2000/svg">
<path d="M15.5 6.5C10.5376 6.5 6.5 10.5371 6.5 15.5C6.5 20.4629 10.5376 24.5 15.5 24.5C20.4629 24.5 24.5 20.4629 24.5 15.5C24.5 10.5371 20.4629 6.5 15.5 6.5ZM15.5 21.5C12.1914 21.5 9.5 18.8086 9.5 15.5C9.5 12.1914 12.1914 9.5 15.5 9.5C18.8086 9.5 21.5 12.1914 21.5 15.5C21.5 18.8086 18.8086 21.5 15.5 21.5ZM15.5 5.13867C16.3286 5.13867 17 4.46679 17 3.63867V1.5C17 0.67187 16.3286 0 15.5 0C14.6714 0 14 0.67188 14 1.5V3.63867C14 4.4668 14.6714 5.13867 15.5 5.13867ZM6.05225 8.17285C6.34521 8.46582 6.729 8.6123 7.11279 8.6123C7.49658 8.6123 7.88086 8.46582 8.17383 8.17285C8.75928 7.58691 8.75928 6.63672 8.17334 6.05176L6.66113 4.54004C6.07519 3.9541 5.12549 3.9541 4.53955 4.54004C3.9541 5.12598 3.9541 6.07617 4.54004 6.66113L6.05225 8.17285ZM5.13818 15.5C5.13818 14.6719 4.46679 14 3.63818 14H1.5C0.67139 14 0 14.6719 0 15.5C0 16.3281 0.67139 17 1.5 17H3.63818C4.4668 17 5.13818 16.3281 5.13818 15.5ZM6.05225 22.8272L4.54004 24.3389C3.9541 24.9238 3.9541 25.874 4.53955 26.46C4.83252 26.7529 5.2168 26.8994 5.60059 26.8994C5.98438 26.8994 6.36817 26.7529 6.66114 26.46L8.17335 24.9482C8.75929 24.3633 8.75929 23.4131 8.17384 22.8272C7.58789 22.2412 6.63818 22.2412 6.05225 22.8272ZM15.5 25.8613C14.6714 25.8613 14 26.5332 14 27.3613V29.5C14 30.3281 14.6714 31 15.5 31C16.3286 31 17 30.3281 17 29.5V27.3613C17 26.5332 16.3286 25.8613 15.5 25.8613ZM24.9482 22.8272C24.3623 22.2412 23.4131 22.2412 22.8272 22.8272C22.2412 23.4131 22.2412 24.3623 22.8272 24.9482L24.3389 26.46C24.6318 26.7529 25.0156 26.8994 25.3994 26.8994C25.7832 26.8994 26.167 26.7529 26.46 26.46C27.0459 25.874 27.0459 24.9248 26.46 24.3389L24.9482 22.8272ZM29.5 14H27.3613C26.5332 14 25.8613 14.6719 25.8613 15.5C25.8613 16.3281 26.5332 17 27.3613 17H29.5C30.3281 17 31 16.3281 31 15.5C31 14.6719 30.3281 14 29.5 14ZM23.8877 8.6123C24.2715 8.6123 24.6553 8.46582 24.9482 8.17285L26.46 6.66113C27.0459 6.07519 27.0459 5.12597 26.46 4.54004C25.874 3.95411 24.9248 3.9541 24.3389 4.54004L22.8272 6.05176C22.2412 6.6377 22.2412 7.58692 22.8272 8.17285C23.1201 8.46582 23.5039 8.6123 23.8877 8.6123Z" fill="white"/>
</svg>
