<svg width="30" height="30" viewBox="0 0 30 30" fill="none" xmlns="http://www.w3.org/2000/svg">
<path d="M15 6.5625C10.3478 6.5625 6.5625 10.3473 6.5625 15C6.5625 19.6527 10.3478 23.4375 15 23.4375C19.6527 23.4375 23.4375 19.6527 23.4375 15C23.4375 10.3473 19.6527 6.5625 15 6.5625ZM15 20.625C11.8982 20.625 9.375 18.1018 9.375 15C9.375 11.8982 11.8982 9.375 15 9.375C18.1018 9.375 20.625 11.8982 20.625 15C20.625 18.1018 18.1018 20.625 15 20.625ZM15 5.28625C15.7768 5.28625 16.4062 4.65637 16.4062 3.88V1.875C16.4062 1.09863 15.7768 0.46875 15 0.46875C14.2232 0.46875 13.5938 1.09864 13.5938 1.875V3.88C13.5938 4.65637 14.2232 5.28625 15 5.28625ZM6.14273 8.1308C6.41738 8.40546 6.77719 8.54278 7.13699 8.54278C7.49679 8.54278 7.85706 8.40546 8.13172 8.1308C8.68058 7.58148 8.68057 6.69068 8.13126 6.14228L6.71356 4.72504C6.16424 4.17572 5.2739 4.17572 4.72458 4.72504C4.17572 5.27436 4.17572 6.16516 4.72504 6.71356L6.14273 8.1308ZM5.28579 15C5.28579 14.2236 4.65637 13.5938 3.87954 13.5938H1.875C1.09818 13.5938 0.46875 14.2236 0.46875 15C0.46875 15.7764 1.09818 16.4062 1.875 16.4062H3.87954C4.65637 16.4062 5.28579 15.7764 5.28579 15ZM6.14273 21.8692L4.72504 23.2864C4.17572 23.8348 4.17572 24.7257 4.72458 25.275C4.99924 25.5496 5.3595 25.6869 5.7193 25.6869C6.07911 25.6869 6.43891 25.5496 6.71357 25.275L8.13127 23.8577C8.68058 23.3093 8.68058 22.4185 8.13172 21.8692C7.5824 21.3199 6.69204 21.3199 6.14273 21.8692ZM15 24.7137C14.2232 24.7137 13.5938 25.3436 13.5938 26.12V28.125C13.5938 28.9014 14.2232 29.5312 15 29.5312C15.7768 29.5312 16.4062 28.9014 16.4062 28.125V26.12C16.4062 25.3436 15.7768 24.7137 15 24.7137ZM23.8577 21.8692C23.3084 21.3199 22.4185 21.3199 21.8692 21.8692C21.3199 22.4185 21.3199 23.3084 21.8692 23.8577L23.2864 25.275C23.5611 25.5496 23.9209 25.6869 24.2807 25.6869C24.6405 25.6869 25.0003 25.5496 25.275 25.275C25.8243 24.7256 25.8243 23.8357 25.275 23.2864L23.8577 21.8692ZM28.125 13.5938H26.12C25.3436 13.5938 24.7137 14.2236 24.7137 15C24.7137 15.7764 25.3436 16.4062 26.12 16.4062H28.125C28.9014 16.4062 29.5312 15.7764 29.5312 15C29.5312 14.2236 28.9014 13.5938 28.125 13.5938ZM22.8635 8.54278C23.2233 8.54278 23.5831 8.40546 23.8577 8.1308L25.275 6.71356C25.8243 6.16424 25.8243 5.27435 25.275 4.72504C24.7257 4.17573 23.8358 4.17572 23.2865 4.72504L21.8692 6.14228C21.3199 6.69159 21.3199 7.58149 21.8692 8.1308C22.1439 8.40546 22.5037 8.54278 22.8635 8.54278Z" fill="black"/>
</svg>
