<svg xmlns="http://www.w3.org/2000/svg" version="1.1" xmlns:xlink="http://www.w3.org/1999/xlink" xmlns:svgjs="http://svgjs.com/svgjs" width="1440" height="560" preserveAspectRatio="none" viewBox="0 0 1440 560"><g mask="url(&quot;#SvgjsMask1030&quot;)" fill="none"><path d="M111.77718199289507-23.29956254626464L190.74688112706554 113.47996861254643 327.5264122858766 34.510269478375974 248.55671315170613-102.2692616804351z" fill="rgba(238, 61, 93, 0.17)" class="triangle-float3"></path><path d="M1259.344,285.128C1300.995,284.872,1338.347,262.037,1360.141,226.542C1383.088,189.167,1392.515,142.102,1370.422,104.216C1348.46,66.555,1302.941,53.864,1259.344,53.687C1215.366,53.508,1169.078,65.452,1146.691,103.306C1123.983,141.704,1132.882,189.873,1156.377,227.794C1178.553,263.586,1217.24,285.387,1259.344,285.128" fill="rgba(238, 61, 93, 0.17)" class="triangle-float1"></path><path d="M261.54366754853163-31.998448099095718L149.1751922847191 72.78685029069615 253.96049067451094 185.15532555450866 366.3289659383235 80.37002716471682z" fill="rgba(238, 61, 93, 0.17)" class="triangle-float2"></path><path d="M1288.5117486783777 298.2782743160655L1207.2925315876776 329.455410710919 1238.469667982531 410.67462780161907 1319.6888850732312 379.49749140676556z" fill="rgba(238, 61, 93, 0.17)" class="triangle-float2"></path><path d="M-127.29 112.15 a141.66 141.66 0 1 0 283.32 0 a141.66 141.66 0 1 0 -283.32 0z" fill="rgba(238, 61, 93, 0.17)" class="triangle-float1"></path><path d="M734.943,616.637C782.853,615.712,825.381,585.598,846.908,542.786C866.502,503.819,854.635,459.401,833.068,421.49C811.194,383.039,779.158,347.366,734.943,345.971C688.741,344.513,649.1,375.209,625.472,414.939C601.236,455.691,592.616,505.585,615.233,547.257C638.813,590.702,685.52,617.591,734.943,616.637" fill="rgba(238, 61, 93, 0.17)" class="triangle-float2"></path><path d="M1037.9196571654038 174.7100442661911L951.3482944769052 199.5339830559703 976.1722332666843 286.105345744469 1062.743595955183 261.28140695468977z" fill="rgba(238, 61, 93, 0.17)" class="triangle-float1"></path><path d="M1379.7898746760586 96.59479440835338L1267.2139093225421 14.803567947765615 1185.4226828619544 127.3795333012821 1297.998648215471 209.17075976186987z" fill="rgba(238, 61, 93, 0.17)" class="triangle-float3"></path></g><defs><mask id="SvgjsMask1030"><rect width="1440" height="560" fill="#ffffff"></rect></mask><style>
            @keyframes float1 {
                0%{transform: translate(0, 0)}
                50%{transform: translate(-10px, 0)}
                100%{transform: translate(0, 0)}
            }

            .triangle-float1 {
                animation: float1 5s infinite;
            }

            @keyframes float2 {
                0%{transform: translate(0, 0)}
                50%{transform: translate(-5px, -5px)}
                100%{transform: translate(0, 0)}
            }

            .triangle-float2 {
                animation: float2 4s infinite;
            }

            @keyframes float3 {
                0%{transform: translate(0, 0)}
                50%{transform: translate(0, -10px)}
                100%{transform: translate(0, 0)}
            }

            .triangle-float3 {
                animation: float3 6s infinite;
            }
        </style></defs></svg>