<svg xmlns="http://www.w3.org/2000/svg" version="1.1" xmlns:xlink="http://www.w3.org/1999/xlink" xmlns:svgjs="http://svgjs.com/svgjs" width="1440" height="560" preserveAspectRatio="none" viewBox="0 0 1440 560"><g mask="url(&quot;#SvgjsMask1020&quot;)" fill="none"><path d="M1130.66,323.278C1162.706,322.665,1189.669,300.33,1204.06,271.691C1217.065,245.811,1210.961,216.383,1197.174,190.911C1182.515,163.829,1161.421,137.531,1130.66,136.086C1097.881,134.546,1068.532,155.554,1052.363,184.109C1036.434,212.24,1036.375,246.422,1052.226,274.597C1068.397,303.34,1097.686,323.909,1130.66,323.278" fill="rgba(238, 61, 93, 0.17)" class="triangle-float3"></path><path d="M39.65485108718905 573.8507781723839L188.24814069564792 581.6382224971251 196.03558502038908 433.0449328886662 47.4422954119302 425.25748856392505z" fill="rgba(238, 61, 93, 0.17)" class="triangle-float2"></path><path d="M273.49 480.72 a180.64 180.64 0 1 0 361.28 0 a180.64 180.64 0 1 0 -361.28 0z" fill="rgba(238, 61, 93, 0.17)" class="triangle-float1"></path><path d="M515.335,688.592C557.419,688.094,594.381,661.79,614.327,624.73C633.257,589.559,630.74,547.052,609.829,513.021C589.886,480.564,553.427,463.966,515.335,463.624C476.569,463.276,438.539,478.508,417.856,511.298C395.753,546.338,392.243,590.816,412.203,627.12C432.869,664.707,472.444,689.099,515.335,688.592" fill="rgba(238, 61, 93, 0.17)" class="triangle-float3"></path><path d="M819.077,476.152C838.02,475.244,852.708,462.148,862.852,446.124C873.984,428.539,883.508,407.635,874.248,388.997C864.19,368.753,841.682,358.028,819.077,358.019C796.456,358.01,774.854,369.201,763.834,388.956C753.07,408.252,755.551,432.036,767.376,450.7C778.394,468.091,798.513,477.138,819.077,476.152" fill="rgba(238, 61, 93, 0.17)" class="triangle-float3"></path><path d="M1116.77 263.54 a185.86 185.86 0 1 0 371.72 0 a185.86 185.86 0 1 0 -371.72 0z" fill="rgba(238, 61, 93, 0.17)" class="triangle-float3"></path><path d="M944.03 309.72 a143.46 143.46 0 1 0 286.92 0 a143.46 143.46 0 1 0 -286.92 0z" fill="rgba(238, 61, 93, 0.17)" class="triangle-float2"></path><path d="M1197.378,254.48C1231.779,252.794,1255.487,222.971,1270.966,192.203C1284.675,164.955,1286.841,133.286,1271.662,106.829C1256.412,80.247,1227.978,65.609,1197.378,63.937C1163.127,62.065,1126.065,68.979,1107.558,97.86C1087.847,128.621,1091.96,168.395,1110.135,200.087C1128.408,231.95,1160.691,256.278,1197.378,254.48" fill="rgba(238, 61, 93, 0.17)" class="triangle-float1"></path><path d="M866.199,598.999C891.517,599.091,919.319,593.053,931.157,570.673C942.531,549.172,928.525,525.272,916.333,504.224C904.186,483.255,890.432,458.689,866.199,458.535C841.822,458.38,827.092,482.443,814.95,503.581C802.873,524.604,790.578,548.847,802.05,570.206C813.936,592.337,841.078,598.908,866.199,598.999" fill="rgba(238, 61, 93, 0.17)" class="triangle-float1"></path></g><defs><mask id="SvgjsMask1020"><rect width="1440" height="560" fill="#ffffff"></rect></mask><style>
            @keyframes float1 {
                0%{transform: translate(0, 0)}
                50%{transform: translate(-10px, 0)}
                100%{transform: translate(0, 0)}
            }

            .triangle-float1 {
                animation: float1 5s infinite;
            }

            @keyframes float2 {
                0%{transform: translate(0, 0)}
                50%{transform: translate(-5px, -5px)}
                100%{transform: translate(0, 0)}
            }

            .triangle-float2 {
                animation: float2 4s infinite;
            }

            @keyframes float3 {
                0%{transform: translate(0, 0)}
                50%{transform: translate(0, -10px)}
                100%{transform: translate(0, 0)}
            }

            .triangle-float3 {
                animation: float3 6s infinite;
            }
        </style></defs></svg>