<svg xmlns="http://www.w3.org/2000/svg" version="1.1" xmlns:xlink="http://www.w3.org/1999/xlink" xmlns:svgjs="http://svgjs.com/svgjs" width="1440" height="560" preserveAspectRatio="none" viewBox="0 0 1440 560">
    <g mask="url(&quot;#SvgjsMask1002&quot;)" fill="none">
        <path d="M796.531,419.612C830.378,418.116,851.838,387.141,868.135,357.438C883.613,329.226,895.9,295.883,879.654,268.106C863.516,240.515,828.488,235.698,796.531,235.015C762.877,234.296,725.275,236.136,707.015,264.415C687.624,294.446,695.197,333.326,713.057,364.291C730.932,395.282,760.789,421.192,796.531,419.612" fill="rgba(238, 61, 93, 0.4)" class="triangle-float2"></path>
        <path d="M1139.219,352.189C1165.098,354.437,1192.961,343.298,1204.403,319.978C1215.027,298.324,1199.036,275.66,1187.03,254.74C1174.939,233.672,1163.424,208.44,1139.219,206.398C1112.504,204.144,1086.329,220.973,1075.044,245.292C1064.999,266.939,1078.799,289.676,1091.082,310.136C1102.836,329.715,1116.469,350.213,1139.219,352.189" fill="rgba(238, 61, 93, 0.4)" class="triangle-float3"></path>
        <path d="M685.502,284.2C704.249,283.842,722.424,277.033,732.769,261.395C744.319,243.937,748.853,221.681,739.123,203.147C728.771,183.428,707.769,170.948,685.502,171.355C663.868,171.751,645.595,186.084,635.174,205.048C625.158,223.275,623.838,245.713,634.997,263.264C645.477,279.746,665.974,284.573,685.502,284.2" fill="rgba(238, 61, 93, 0.4)" class="triangle-float2"></path>
        <path d="M449.925,190.997C476.325,189.454,489.179,161.642,502.272,138.665C515.165,116.039,531.987,91.102,520.03,67.967C507.484,43.691,477.244,36.747,449.925,37.379C423.867,37.982,398.523,48.67,385.222,71.086C371.66,93.942,373.162,122.086,385.783,145.475C399.127,170.205,421.873,192.637,449.925,190.997" fill="rgba(238, 61, 93, 0.4)" class="triangle-float3"></path>
        <path d="M706.7031211400697 491.5942103360994L744.3842999949196 406.96089694404435 622.0698077480147 453.91303148124945z" fill="rgba(238, 61, 93, 0.4)" class="triangle-float1"></path>
        <path d="M237.255,452.736C260.531,451.798,275.935,431.117,287.057,410.648C297.539,391.356,304.059,368.676,293.339,349.515C282.414,329.986,259.63,321.364,237.255,321.627C215.377,321.885,194.857,332.16,183.413,350.809C171.409,370.372,169.261,394.668,179.982,414.962C191.431,436.635,212.764,453.723,237.255,452.736" fill="rgba(238, 61, 93, 0.4)" class="triangle-float2"></path>
        <path d="M370.35058194082154 380.1664144503311L466.5371243940863 483.31385290267303 473.4980203931635 283.9798719970664z" fill="rgba(238, 61, 93, 0.4)" class="triangle-float2"></path>
    </g>
    <defs>
        <mask id="SvgjsMask1002">
            <rect width="1440" height="560" fill="#ffffff"></rect>
        </mask>
        <style>
            @keyframes float1 {
                0%{transform: translate(0, 0)}
                50%{transform: translate(-10px, 0)}
                100%{transform: translate(0, 0)}
            }

            .triangle-float1 {
                animation: float1 5s infinite;
            }

            @keyframes float2 {
                0%{transform: translate(0, 0)}
                50%{transform: translate(-5px, -5px)}
                100%{transform: translate(0, 0)}
            }

            .triangle-float2 {
                animation: float2 4s infinite;
            }

            @keyframes float3 {
                0%{transform: translate(0, 0)}
                50%{transform: translate(0, -10px)}
                100%{transform: translate(0, 0)}
            }

            .triangle-float3 {
                animation: float3 6s infinite;
            }
        </style>
    </defs>
</svg>