<svg xmlns="http://www.w3.org/2000/svg" version="1.1" xmlns:xlink="http://www.w3.org/1999/xlink" xmlns:svgjs="http://svgjs.com/svgjs" width="1440" height="560" preserveAspectRatio="none" viewBox="0 0 1440 560">
    <g mask="url(&quot;#SvgjsMask1003&quot;)" fill="none">
        <path d="M153.98 649.2C309.43 614.08 362.87 210.01 608.95 202.67 855.03 195.33 836.44 272.67 1063.92 272.67 1291.41 272.67 1403.81 202.87 1518.89 202.67" stroke="rgba(238, 109, 133, 0.34)" stroke-width="2"></path>
        <path d="M162.95 662.24C364.81 648.76 490.89 272.64 867.32 263.84 1243.75 255.04 1392.42 130.04 1571.69 129.44" stroke="rgba(238, 109, 133, 0.34)" stroke-width="2"></path>
        <path d="M886.68 576.77C993.66 516.11 934.17 157.77 1134.99 152.13 1335.82 146.49 1503.7 274.41 1631.62 275.33" stroke="rgba(238, 109, 133, 0.34)" stroke-width="2"></path>
        <path d="M706.88 570.32C847.08 524.36 879.86 122.57 1084.01 116.39 1288.15 110.21 1360.59 254.16 1461.13 256.39" stroke="rgba(238, 109, 133, 0.34)" stroke-width="2"></path>
        <path d="M247.44 628.37C354.53 626.97 451.74 502.74 656.98 502.71 862.22 502.68 861.75 572.71 1066.51 572.71 1271.28 572.71 1372.18 502.96 1476.05 502.71" stroke="rgba(238, 109, 133, 0.34)" stroke-width="2"></path>
    </g>
    <defs>
        <mask id="SvgjsMask1003">
            <rect width="1440" height="560" fill="#ffffff"></rect>
        </mask>
    </defs>
</svg>